<svg width="375" height="812" viewBox="0 0 375 812" fill="none" xmlns="http://www.w3.org/2000/svg">
<g clip-path="url(#clip0_3_8697)">
<rect width="375" height="812" fill="url(#paint0_linear_3_8697)"/>
<circle cx="18.5" cy="405.5" r="327.5" transform="rotate(-90 18.5 405.5)" stroke="url(#paint1_linear_3_8697)" stroke-opacity="0.5" stroke-width="4"/>
<path d="M92.6319 403.568H87.9969V392.768C87.9969 390.248 86.6319 389.738 84.9669 391.628L83.7669 392.993L73.6119 404.543C72.2169 406.118 72.8019 407.408 74.9019 407.408H79.5369V418.208C79.5369 420.728 80.9019 421.238 82.5669 419.348L83.7669 417.983L93.9219 406.433C95.3169 404.858 94.7319 403.568 92.6319 403.568Z" fill="white"/>
<path d="M109.02 393.6H128.424V399.018H115.32V405.906H126.072V411.072H115.32V423H109.02V393.6ZM131.089 393.6H137.011V423H131.089V393.6ZM162.075 418.002V423H159.051C156.321 423 154.977 421.824 155.061 419.472C154.263 420.732 153.297 421.656 152.163 422.286C150.987 422.958 149.601 423.252 148.005 423.252C145.569 423.252 143.637 422.706 142.167 421.614C140.697 420.522 139.983 418.926 139.983 416.91C139.983 414.642 140.823 412.878 142.503 411.618C144.183 410.358 146.661 409.728 149.895 409.728H154.179V408.678C154.179 407.712 153.801 406.956 153.087 406.368C152.331 405.78 151.365 405.486 150.147 405.486C149.055 405.486 148.131 405.738 147.459 406.2C146.745 406.704 146.325 407.334 146.199 408.132H140.487C140.655 405.948 141.663 404.226 143.427 403.008C145.191 401.79 147.501 401.16 150.441 401.16C153.465 401.16 155.817 401.832 157.497 403.176C159.177 404.52 160.017 406.494 160.017 409.014V416.616C160.017 417.162 160.101 417.54 160.353 417.708C160.563 417.918 160.899 418.002 161.403 418.002H162.075ZM154.179 413.676H149.853C148.593 413.676 147.627 413.928 146.955 414.432C146.283 414.936 145.947 415.608 145.947 416.49C145.947 417.246 146.199 417.876 146.787 418.296C147.375 418.758 148.131 418.968 149.139 418.968C150.651 418.968 151.869 418.548 152.793 417.666C153.675 416.784 154.137 415.608 154.179 414.096V413.676ZM168.881 415.818C168.965 416.784 169.427 417.54 170.267 418.128C171.107 418.716 172.157 419.01 173.501 419.01C174.761 419.01 175.727 418.842 176.483 418.422C177.197 418.002 177.575 417.414 177.575 416.658C177.575 416.112 177.407 415.692 177.071 415.398C176.735 415.146 176.231 414.936 175.643 414.81C175.013 414.684 174.005 414.516 172.619 414.348C170.687 414.096 169.133 413.802 167.873 413.382C166.613 413.004 165.605 412.374 164.849 411.534C164.093 410.694 163.715 409.602 163.715 408.174C163.715 406.788 164.093 405.57 164.849 404.478C165.605 403.386 166.697 402.546 168.125 401.958C169.511 401.37 171.107 401.076 172.955 401.076C175.895 401.118 178.247 401.748 180.053 402.966C181.859 404.226 182.825 405.906 182.993 408.09H177.365C177.281 407.292 176.819 406.62 176.063 406.116C175.307 405.612 174.299 405.318 173.123 405.318C171.989 405.318 171.065 405.528 170.393 405.948C169.721 406.368 169.385 406.956 169.385 407.628C169.385 408.132 169.553 408.51 169.931 408.762C170.267 409.014 170.771 409.224 171.359 409.308C171.947 409.434 172.913 409.56 174.299 409.686C177.197 410.022 179.423 410.652 180.977 411.576C182.531 412.5 183.329 414.054 183.329 416.238C183.329 417.666 182.909 418.884 182.069 419.934C181.229 421.026 180.095 421.824 178.625 422.412C177.155 423 175.475 423.252 173.543 423.252C170.519 423.252 168.083 422.622 166.235 421.278C164.345 419.934 163.337 418.128 163.253 415.818H168.881ZM204.981 403.512C206.619 405.108 207.459 407.67 207.459 411.282V423H201.537V411.534C201.537 409.77 201.159 408.384 200.445 407.46C199.689 406.536 198.597 406.032 197.169 406.032C195.657 406.032 194.439 406.578 193.599 407.586C192.759 408.636 192.339 410.064 192.339 411.912V423H186.417V393.6H192.339V404.058C193.935 402.126 196.035 401.16 198.723 401.16C201.243 401.16 203.343 401.958 204.981 403.512ZM223.308 393.6C225.408 393.6 227.256 394.02 228.852 394.818C230.448 395.616 231.708 396.75 232.59 398.22C233.472 399.732 233.934 401.454 233.934 403.386C233.934 405.36 233.472 407.082 232.59 408.552C231.708 410.022 230.448 411.156 228.852 411.954C227.256 412.752 225.408 413.13 223.308 413.13H217.638V423H211.338V393.6H223.308ZM217.638 407.88H222.72C224.19 407.88 225.366 407.502 226.248 406.662C227.088 405.864 227.55 404.772 227.55 403.386C227.55 402 227.088 400.908 226.248 400.068C225.366 399.27 224.19 398.85 222.72 398.85H217.638V407.88ZM240.28 421.908C238.558 420.984 237.214 419.682 236.29 418.002C235.366 416.322 234.904 414.39 234.904 412.206C234.904 410.022 235.366 408.09 236.29 406.41C237.214 404.73 238.558 403.47 240.28 402.546C242.002 401.622 244.018 401.16 246.286 401.16C248.554 401.16 250.528 401.622 252.25 402.546C253.972 403.47 255.316 404.73 256.24 406.41C257.164 408.09 257.668 410.022 257.668 412.206C257.668 414.432 257.164 416.364 256.24 418.044C255.316 419.724 253.972 420.984 252.25 421.908C250.528 422.832 248.554 423.252 246.286 423.252C244.018 423.252 242.002 422.832 240.28 421.908ZM250.192 416.7C251.158 415.566 251.662 414.054 251.662 412.206C251.662 410.358 251.158 408.888 250.192 407.712C249.226 406.578 247.924 405.99 246.286 405.99C244.648 405.99 243.346 406.578 242.38 407.712C241.414 408.888 240.952 410.358 240.952 412.206C240.952 414.054 241.414 415.566 242.38 416.7C243.346 417.876 244.648 418.422 246.286 418.422C247.924 418.422 249.226 417.876 250.192 416.7ZM266.031 393.39C266.661 394.02 266.997 394.818 266.997 395.742C266.997 396.708 266.661 397.506 266.031 398.136C265.359 398.808 264.561 399.102 263.595 399.102C262.587 399.102 261.789 398.808 261.117 398.136C260.445 397.506 260.151 396.708 260.151 395.742C260.151 394.818 260.445 394.02 261.117 393.39C261.789 392.76 262.587 392.424 263.595 392.424C264.561 392.424 265.359 392.76 266.031 393.39ZM260.613 401.412H266.535V423H260.613V401.412ZM288.953 403.512C290.549 405.108 291.389 407.67 291.389 411.282V423H285.467V411.618C285.467 407.922 283.997 406.032 281.099 406.032C279.545 406.032 278.369 406.578 277.529 407.586C276.689 408.636 276.269 410.106 276.269 411.954V423H270.347V401.412H275.513L276.059 404.1C276.815 403.176 277.697 402.462 278.789 401.958C279.839 401.454 281.141 401.16 282.737 401.16C285.257 401.16 287.315 401.958 288.953 403.512ZM296.191 406.41H292.621V401.412H296.191V395.364H302.113V401.412H307.027V406.41H302.113V415.86C302.113 416.616 302.239 417.162 302.575 417.498C302.911 417.834 303.457 418.002 304.213 418.002H307.279V423H302.365C298.249 423 296.191 420.942 296.191 416.826V406.41Z" fill="white"/>
</g>
<defs>
<linearGradient id="paint0_linear_3_8697" x1="187.5" y1="0" x2="187.5" y2="812" gradientUnits="userSpaceOnUse">
<stop stop-color="#2EB5E9"/>
<stop offset="1" stop-color="#2E78E9"/>
</linearGradient>
<linearGradient id="paint1_linear_3_8697" x1="18.5" y1="76" x2="18.5" y2="735" gradientUnits="userSpaceOnUse">
<stop stop-color="#2E6CE9"/>
<stop offset="1" stop-color="#D8ECFF"/>
</linearGradient>
<clipPath id="clip0_3_8697">
<rect width="375" height="812" fill="white"/>
</clipPath>
</defs>
</svg>
